<?xml version="1.0" encoding="UTF-8"?>
<!-- Generator: visioncortex VTracer 0.6.3 -->
<svg version="1.1" xmlns="http://www.w3.org/2000/svg" width="1280" height="336">
<path d="M0 0 C2.46 1.37 4.64 2.82 6.86 4.55 C7.69 5.18 8.52 5.82 9.37 6.48 C10.25 7.17 11.14 7.86 12.04 8.57 C13.94 10.03 15.84 11.49 17.74 12.95 C19.18 14.07 19.18 14.07 20.65 15.2 C24.9 18.46 29.19 21.67 33.48 24.88 C41.33 30.74 49.12 36.67 56.91 42.61 C62.71 47.04 68.54 51.43 74.39 55.8 C79.94 59.96 85.46 64.17 90.98 68.38 C104.82 79.71 104.82 79.71 119.65 89.56 C121.95 91.85 121.96 93.52 122 96.69 C121.99 97.41 121.97 98.13 121.96 98.88 C121.97 99.64 121.97 100.41 121.97 101.2 C121.98 103.8 121.96 106.39 121.94 108.98 C121.93 110.86 121.94 112.74 121.94 114.62 C121.94 119.68 121.92 124.73 121.89 129.78 C121.86 134.51 121.86 139.25 121.86 143.99 C121.84 157.85 121.78 171.71 121.73 185.57 C121.65 216.52 121.57 247.48 121.48 279.38 C40.63 279.38 -40.22 279.38 -123.52 279.38 C-123.95 248.52 -124.38 217.67 -124.83 185.88 C-125.02 176.16 -125.21 166.44 -125.41 156.42 C-125.5 144.49 -125.5 144.49 -125.52 138.9 C-125.54 135.02 -125.62 131.14 -125.74 127.25 C-126.71 92.8 -126.71 92.8 -119.04 84.42 C-114.79 80.78 -110.28 78.15 -105.23 75.76 C-100.71 73.46 -96.83 70.34 -92.83 67.25 C-91.27 66.1 -89.7 64.95 -88.13 63.81 C-82.77 59.85 -77.54 55.75 -72.3 51.64 C-66.04 46.75 -59.67 42.03 -53.27 37.34 C-47.25 32.93 -41.33 28.43 -35.44 23.86 C-31.25 20.62 -27.04 17.41 -22.83 14.19 C-21.96 13.53 -21.1 12.86 -20.2 12.17 C-18.5 10.88 -16.8 9.58 -15.08 8.3 C-13.31 6.98 -11.56 5.63 -9.82 4.26 C-8.95 3.6 -8.08 2.94 -7.19 2.27 C-6.41 1.66 -5.63 1.06 -4.83 0.44 C-2.52 -0.62 -2.52 -0.62 0 0 Z M-47.15 91.45 C-52.29 98.69 -52 105.67 -51.96 114.32 C-51.98 115.55 -52 116.79 -52.02 118.06 C-52.12 127.96 -52.12 127.96 -47.52 136.38 C-41.76 140.54 -37.26 140.96 -30.27 140.87 C-28.82 140.88 -28.82 140.88 -27.33 140.88 C-25.29 140.88 -23.25 140.87 -21.2 140.84 C-18.09 140.82 -14.99 140.82 -11.88 140.84 C-9.88 140.83 -7.89 140.82 -5.9 140.81 C-4.98 140.81 -4.05 140.82 -3.11 140.82 C4.1 140.72 10.98 139.6 16.29 134.25 C17.11 133.48 17.11 133.48 17.94 132.68 C22.37 126.07 22.9 119.07 22.67 111.32 C22.66 110.45 22.64 109.58 22.63 108.69 C22.59 106.59 22.54 104.48 22.48 102.38 C21.82 102.38 21.16 102.38 20.48 102.38 C20.28 101.33 20.07 100.27 19.86 99.19 C18.59 94.92 16.28 92.59 12.48 90.38 C4.36 86.37 -3.57 85.59 -12.52 85.38 C-13.84 85.34 -15.15 85.3 -16.51 85.26 C-32.97 84.51 -32.97 84.51 -47.15 91.45 Z M-36.52 141.38 C-36.52 141.71 -36.52 142.04 -36.52 142.38 C-25.96 142.38 -15.4 142.38 -4.52 142.38 C-4.52 142.05 -4.52 141.72 -4.52 141.38 C-15.08 141.38 -25.64 141.38 -36.52 141.38 Z M-46.52 174.38 C-49.95 178.78 -51.63 182.25 -51.7 187.81 C-51.71 188.71 -51.72 189.6 -51.73 190.53 C-51.74 191.49 -51.75 192.46 -51.76 193.45 C-51.76 194.45 -51.77 195.45 -51.78 196.48 C-51.79 198.59 -51.81 200.7 -51.81 202.82 C-51.83 206.04 -51.87 209.25 -51.92 212.47 C-51.93 214.53 -51.94 216.58 -51.94 218.64 C-51.96 219.6 -51.98 220.55 -52 221.54 C-51.97 228.43 -50.66 233.72 -46.1 239.03 C-41 243.38 -32.59 242.67 -26.27 242.64 C-25.3 242.65 -24.33 242.65 -23.33 242.65 C-21.29 242.65 -19.24 242.65 -17.2 242.64 C-14.12 242.63 -11.05 242.64 -7.97 242.65 C15.24 243.24 15.24 243.24 36.48 235.38 C37.39 234.82 38.3 234.26 39.23 233.69 C47.11 225.59 49.42 216.39 49.73 205.38 C49.47 195.5 47.87 184.85 40.66 177.53 C26.68 166.38 6.94 168.2 -9.96 168.19 C-10.74 168.19 -11.52 168.19 -12.33 168.19 C-30.59 167.2 -30.59 167.2 -46.52 174.38 Z M49.48 197.38 C50.48 200.38 50.48 200.38 50.48 200.38 Z M49.48 210.38 C50.48 213.38 50.48 213.38 50.48 213.38 Z M9.48 242.38 C13.48 243.38 13.48 243.38 13.48 243.38 Z " fill="#FDFDFD" transform="translate(123.51806640625,0.62158203125)"/>
<path d="M0 0 C1.27 -0.01 1.27 -0.01 2.58 -0.02 C5.36 -0.03 8.15 -0 10.94 0.02 C12.9 0.02 14.85 0.02 16.81 0.02 C20.9 0.02 24.99 0.04 29.08 0.07 C34.3 0.11 39.51 0.12 44.73 0.11 C48.77 0.11 52.8 0.12 56.84 0.14 C58.76 0.14 60.68 0.15 62.61 0.15 C81.75 0.16 99.15 3.02 113.24 17.12 C123.79 28.48 127.61 40.16 127.11 55.62 C126.13 64.9 123.41 72 118.11 79.62 C113.55 86.06 113.55 86.06 112.11 93.62 C113.64 98.58 116.47 102.13 119.99 105.87 C129.38 116.1 132.7 128.59 132.3 142.31 C131.23 155.46 127.89 165.67 119.11 175.62 C118.52 176.31 117.92 177 117.3 177.71 C104.62 191.42 88.01 194.8 70.11 195.62 C64.03 195.79 57.94 195.78 51.86 195.78 C50.14 195.79 48.42 195.79 46.71 195.79 C43.14 195.8 39.57 195.8 36.01 195.8 C31.44 195.8 26.87 195.81 22.31 195.83 C18.78 195.84 15.24 195.84 11.71 195.84 C10.03 195.85 8.34 195.85 6.66 195.86 C4.31 195.87 1.96 195.86 -0.38 195.86 C-1.42 195.87 -1.42 195.87 -2.47 195.88 C-7.48 195.84 -11.18 195.23 -14.87 191.74 C-15.45 191.04 -16.04 190.34 -16.64 189.62 C-17.23 188.91 -17.82 188.21 -18.43 187.49 C-21.2 183.92 -21.02 181.46 -21.03 176.97 C-21.04 176.28 -21.04 175.59 -21.05 174.88 C-21.06 172.56 -21.06 170.23 -21.06 167.91 C-21.07 166.25 -21.08 164.59 -21.08 162.92 C-21.1 158.4 -21.11 153.87 -21.12 149.35 C-21.13 146.52 -21.13 143.69 -21.14 140.87 C-21.16 132.02 -21.17 123.17 -21.18 114.33 C-21.19 104.12 -21.22 93.91 -21.26 83.7 C-21.29 75.8 -21.3 67.91 -21.3 60.02 C-21.31 55.31 -21.32 50.6 -21.34 45.88 C-21.36 41.45 -21.37 37.01 -21.36 32.57 C-21.36 30.95 -21.36 29.32 -21.38 27.7 C-21.51 10.78 -21.51 10.78 -16.89 5.62 C-11.69 0.94 -6.83 -0.12 0 0 Z M33.11 46.62 C30.46 50.98 30.78 55.09 30.8 60.05 C30.78 60.9 30.77 61.75 30.75 62.62 C30.75 67.39 30.89 70.81 34.11 74.62 C39.37 76.37 44.98 75.8 50.49 75.8 C51.72 75.81 52.95 75.83 54.22 75.84 C55.41 75.84 56.6 75.84 57.82 75.85 C58.91 75.85 59.99 75.85 61.11 75.86 C65.69 75.49 69.2 74.09 72.42 70.8 C75.98 66.44 75.79 62.08 75.48 56.64 C75.01 52.79 74.66 50.61 72.11 47.62 C65.03 42.91 58.73 41.85 50.36 42.05 C49.36 42.04 48.36 42.03 47.33 42.02 C41.48 42.08 37.61 42.5 33.11 46.62 Z M76.11 57.62 C76.11 59.6 76.11 61.58 76.11 63.62 C76.44 63.62 76.77 63.62 77.11 63.62 C77.11 61.64 77.11 59.66 77.11 57.62 C76.78 57.62 76.45 57.62 76.11 57.62 Z M33.3 114.62 C30.18 119.86 30.93 125.58 30.92 131.49 C30.91 132.58 30.9 133.67 30.89 134.79 C30.89 135.84 30.88 136.9 30.88 137.98 C30.88 138.94 30.87 139.9 30.87 140.89 C31.13 143.86 31.76 145.97 33.11 148.62 C39.15 152.62 45.92 152.07 52.96 152.01 C54.98 151.99 56.99 152.01 59 152.03 C71.04 152.02 71.04 152.02 81.49 146.68 C82.02 146 82.56 145.32 83.11 144.62 C83.67 143.93 84.23 143.25 84.8 142.55 C88.36 137.29 87.59 130.69 87.11 124.62 C86.13 120.07 84.73 116.85 80.98 113.99 C73.25 109.51 66.58 109.4 57.75 109.38 C55.75 109.37 53.75 109.33 51.75 109.3 C49.85 109.3 49.85 109.3 47.9 109.29 C46.74 109.28 45.59 109.27 44.39 109.26 C39.82 109.76 36.41 111.19 33.3 114.62 Z M88.11 128.62 C88.11 130.6 88.11 132.58 88.11 134.62 C88.44 134.62 88.77 134.62 89.11 134.62 C89.11 132.64 89.11 130.66 89.11 128.62 C88.78 128.62 88.45 128.62 88.11 128.62 Z " fill="#FDFDFD" transform="translate(342.8876953125,83.384765625)"/>
<path d="M0 0 C12.63 9.95 22.46 22.55 26.8 38.21 C27.03 38.95 27.25 39.69 27.48 40.45 C28.94 46.22 29.1 52.1 29.24 58.02 C29.29 59.26 29.29 59.26 29.35 60.52 C29.35 61.31 29.36 62.1 29.36 62.92 C29.38 63.98 29.38 63.98 29.4 65.06 C28.43 68.54 26.61 69.97 23.8 72.21 C20.89 72.92 18.06 72.87 15.07 72.82 C14.2 72.83 13.33 72.83 12.44 72.84 C9.57 72.85 6.71 72.83 3.84 72.81 C1.84 72.82 -0.15 72.83 -2.15 72.84 C-7.4 72.86 -12.66 72.86 -17.91 72.84 C-26.31 72.82 -34.72 72.83 -43.12 72.87 C-46.06 72.87 -48.99 72.86 -51.92 72.85 C-53.73 72.85 -55.53 72.85 -57.33 72.86 C-58.14 72.85 -58.96 72.84 -59.79 72.83 C-64.66 72.86 -67.97 73.54 -72.2 76.21 C-74.63 79.11 -75.23 80.47 -75.07 84.27 C-74.12 87.47 -73.67 88.97 -71.2 91.21 C-68.26 92.48 -65.28 93.38 -62.2 94.21 C-61.39 94.44 -60.59 94.66 -59.76 94.9 C-48.26 96.3 -37.83 94.01 -28.18 87.45 C-20.72 82.8 -12.62 82.68 -4.03 82.71 C-2 82.71 0.02 82.67 2.05 82.62 C12.95 82.6 12.95 82.6 16.67 85.62 C19.86 89.5 20.51 92.25 20.47 97.22 C17.82 109.14 4.14 119.21 -5.45 125.4 C-27.17 138.24 -52.15 140.26 -76.43 134.54 C-96.24 129.33 -113.53 117.06 -124.63 99.77 C-135.19 81.43 -138.07 61.64 -133.37 41.01 C-130.01 30.12 -124.98 19.61 -117.2 11.21 C-116.47 10.39 -115.74 9.58 -114.99 8.73 C-85.07 -23.21 -34.6 -24.47 0 0 Z M-62.2 26.21 C-65.45 29.62 -66.21 31.18 -66.13 35.9 C-65.23 39.08 -64.82 40.32 -62.2 42.21 C-58.94 43.84 -55.4 43.48 -51.82 43.52 C-51.05 43.55 -50.28 43.58 -49.49 43.61 C-45.77 43.65 -43.81 43.63 -40.68 41.47 C-38.24 37.76 -38.59 34.49 -39.2 30.21 C-39.99 27.19 -39.99 27.19 -42.2 25.21 C-49.22 22.43 -55.42 22.97 -62.2 26.21 Z M-38.2 33.21 C-37.2 35.21 -37.2 35.21 -37.2 35.21 Z M-57.2 44.21 C-57.2 44.54 -57.2 44.87 -57.2 45.21 C-53.57 45.21 -49.94 45.21 -46.2 45.21 C-46.2 44.88 -46.2 44.55 -46.2 44.21 C-49.83 44.21 -53.46 44.21 -57.2 44.21 Z M-134.2 52.21 C-133.2 56.21 -133.2 56.21 -133.2 56.21 Z M-134.2 66.21 C-133.2 70.21 -133.2 70.21 -133.2 70.21 Z " fill="#FDFDFD" transform="translate(619.1953125,141.7890625)"/>
<path d="M0 0 C0.95 -0.01 1.9 -0.02 2.88 -0.04 C4.9 -0.06 6.91 -0.07 8.93 -0.07 C11.99 -0.09 15.05 -0.15 18.12 -0.22 C20.08 -0.24 22.04 -0.24 24 -0.25 C24.91 -0.28 25.82 -0.3 26.75 -0.33 C32.96 -0.27 36.14 1.32 40.63 5.58 C43.86 9.45 45.49 13.86 47.27 18.54 C47.87 20.08 48.47 21.62 49.07 23.16 C51.17 28.59 53.22 34.03 55.27 39.48 C56.66 43.17 58.05 46.87 59.45 50.57 C59.95 51.88 59.95 51.88 60.46 53.22 C62.93 59.72 65.51 66.16 68.27 72.54 C70.25 72.54 72.23 72.54 74.27 72.54 C75.61 68.91 76.95 65.29 78.28 61.66 C78.77 60.33 79.26 59 79.75 57.67 C82.75 49.54 85.68 41.39 88.49 33.19 C89.02 31.65 89.56 30.1 90.09 28.56 C90.86 26.32 91.63 24.07 92.39 21.81 C93.09 19.71 93.81 17.61 94.54 15.51 C94.95 14.31 95.35 13.1 95.77 11.87 C98.06 6.76 100.92 2.7 106.27 0.54 C108.35 0.27 108.35 0.27 110.59 0.25 C111.85 0.23 111.85 0.23 113.15 0.21 C114.05 0.21 114.96 0.21 115.89 0.2 C116.82 0.2 117.76 0.19 118.73 0.18 C120.71 0.17 122.68 0.17 124.66 0.17 C127.69 0.16 130.71 0.13 133.74 0.09 C135.66 0.08 137.59 0.08 139.51 0.08 C140.41 0.06 141.32 0.05 142.25 0.03 C146.3 0.06 148.75 0.26 152.38 2.19 C154.82 5.23 154.55 6.7 154.27 10.54 C153.48 13.07 153.48 13.07 152.36 15.61 C151.94 16.57 151.52 17.54 151.09 18.53 C150.63 19.57 150.17 20.6 149.69 21.66 C149.22 22.75 148.74 23.84 148.25 24.96 C146.7 28.49 145.14 32.01 143.58 35.54 C142.51 37.98 141.43 40.42 140.36 42.87 C138.26 47.65 136.16 52.43 134.05 57.22 C130.86 64.45 127.71 71.71 124.58 78.98 C123.6 81.24 122.62 83.5 121.64 85.76 C119.74 90.13 117.85 94.49 115.97 98.85 C110.09 112.43 104.2 125.99 98.27 139.54 C97.95 140.26 97.64 140.97 97.31 141.71 C86.39 166.59 74.12 193.73 47.27 204.54 C35.89 208.41 24.55 209.85 12.58 209.66 C11.48 209.66 10.39 209.65 9.26 209.64 C6.59 209.61 3.93 209.58 1.27 209.54 C-0.03 205.65 -0.03 201.88 -0.16 197.82 C-0.18 196.97 -0.21 196.11 -0.24 195.23 C-0.3 193.43 -0.35 191.62 -0.4 189.81 C-0.48 187.05 -0.59 184.28 -0.69 181.52 C-0.74 179.77 -0.79 178.01 -0.84 176.26 C-0.88 175.43 -0.91 174.6 -0.95 173.75 C-1.08 167.95 -1.08 167.95 0.66 165.86 C3.36 163.64 5.35 163.36 8.77 163.11 C9.68 163.04 10.58 162.96 11.52 162.89 C13.41 162.74 15.3 162.6 17.2 162.46 C23.95 161.9 30.16 161.13 35.54 156.64 C36.09 155.97 36.64 155.29 37.2 154.6 C37.77 153.93 38.33 153.26 38.92 152.57 C41.49 148.69 41.47 144.87 41.58 140.29 C41.63 138.67 41.63 138.67 41.69 137.02 C41.31 133.88 40.89 132.52 39.47 129.84 C37.34 125.72 35.45 121.52 33.61 117.27 C32.9 115.64 32.19 114.02 31.48 112.39 C31.11 111.54 30.74 110.69 30.36 109.82 C23.94 95.07 17.42 80.37 10.77 65.73 C9.58 63.11 8.39 60.49 7.21 57.87 C6.63 56.58 6.63 56.58 6.03 55.27 C5.26 53.56 4.48 51.84 3.71 50.13 C1.79 45.91 -0.12 41.69 -2.04 37.47 C-3.87 33.48 -5.68 29.47 -7.48 25.46 C-8.14 23.99 -8.81 22.51 -9.49 21.04 C-10.41 19.03 -11.32 17.01 -12.22 14.99 C-12.99 13.29 -12.99 13.29 -13.77 11.56 C-14.82 8.26 -15.01 6.74 -13.73 3.54 C-10.28 -0.69 -5.02 0.04 0 0 Z " fill="#FDFDFD" transform="translate(1083.734375,126.4609375)"/>
<path d="M0 0 C0.87 -0.01 1.73 -0.02 2.62 -0.02 C4.44 -0.03 6.27 -0.04 8.09 -0.03 C10.87 -0.03 13.64 -0.07 16.42 -0.12 C18.2 -0.12 19.97 -0.13 21.75 -0.12 C22.58 -0.14 23.4 -0.16 24.25 -0.17 C28.37 -0.13 31.09 0.21 34.4 2.79 C36.88 5.47 36.88 5.47 37.58 8.99 C37.07 15.11 34.14 20.59 31.62 26.09 C31.04 27.39 30.47 28.69 29.89 29.99 C28.6 32.89 27.31 35.78 26.01 38.67 C22.45 46.64 18.99 54.66 15.52 62.67 C14.24 65.61 12.96 68.55 11.68 71.49 C7.36 81.44 3.04 91.39 -1.25 101.36 C-40.34 192.26 -40.34 192.26 -65.12 203.47 C-69.41 205.04 -73.71 206.34 -78.12 207.47 C-78.76 207.65 -79.4 207.82 -80.06 208.01 C-86.84 209.74 -93.53 209.87 -100.5 209.91 C-101.67 209.94 -102.85 209.97 -104.06 210.01 C-105.18 210.01 -106.3 210.02 -107.46 210.03 C-108.99 210.05 -108.99 210.05 -110.54 210.07 C-113.12 209.47 -113.12 209.47 -114.92 207.06 C-115.32 206.2 -115.71 205.35 -116.12 204.47 C-116.46 203.81 -116.78 203.15 -117.12 202.47 C-117.41 197.81 -117.44 193.16 -117.48 188.49 C-117.49 186.94 -117.52 185.39 -117.56 183.84 C-117.61 181.59 -117.63 179.35 -117.65 177.11 C-117.67 176.42 -117.69 175.73 -117.72 175.02 C-117.7 171.12 -117.23 169.6 -114.72 166.55 C-111.6 164.04 -109.95 163.35 -106.05 163.04 C-105.24 162.97 -104.43 162.89 -103.59 162.82 C-101.89 162.67 -100.19 162.53 -98.48 162.39 C-90.06 161.62 -83.23 159.57 -77.12 153.47 C-73.83 146.82 -74.18 139.37 -75.89 132.28 C-78.99 123.18 -83.19 114.46 -87.23 105.74 C-95.6 87.66 -103.63 69.41 -111.71 51.19 C-112.14 50.21 -112.57 49.23 -113.02 48.22 C-113.88 46.28 -114.74 44.35 -115.59 42.41 C-117.93 37.14 -120.29 31.89 -122.68 26.65 C-123.16 25.58 -123.64 24.51 -124.14 23.42 C-124.97 21.57 -125.81 19.72 -126.67 17.89 C-128.7 13.36 -129.7 10.42 -128.12 5.47 C-126.12 2.7 -124.4 2.13 -121.12 1.47 C-119.69 1.36 -118.24 1.29 -116.8 1.26 C-115.96 1.24 -115.11 1.22 -114.24 1.2 C-110.4 1.14 -106.57 1.09 -102.73 1.06 C-100.7 1.04 -98.68 1.01 -96.65 0.96 C-93.73 0.89 -90.81 0.87 -87.88 0.85 C-86.98 0.82 -86.07 0.79 -85.14 0.76 C-80.66 0.78 -78.77 0.92 -75.27 3.9 C-72.5 7.98 -70.83 12.56 -69.13 17.15 C-68.77 18.08 -68.42 19.02 -68.05 19.98 C-66.92 22.95 -65.8 25.93 -64.69 28.91 C-63.94 30.87 -63.2 32.84 -62.45 34.8 C-61.9 36.24 -61.9 36.24 -61.35 37.71 C-60.62 39.62 -59.9 41.53 -59.17 43.43 C-58.82 44.35 -58.48 45.27 -58.12 46.21 C-57.78 47.1 -57.44 47.98 -57.1 48.9 C-56.18 51.31 -55.29 53.73 -54.39 56.15 C-53.88 57.52 -53.36 58.89 -52.84 60.25 C-52.41 61.42 -51.97 62.58 -51.53 63.79 C-50.34 66.49 -50.34 66.49 -48.33 67.92 C-45.22 68.7 -43.18 68.43 -40.12 67.47 C-38.56 65.51 -38.56 65.51 -37.72 62.8 C-37.32 61.71 -36.91 60.62 -36.5 59.5 C-36.04 58.16 -35.58 56.81 -35.12 55.47 C-34.72 54.28 -34.72 54.28 -34.3 53.07 C-31.69 45.47 -29.15 37.85 -26.64 30.21 C-25.67 27.29 -24.7 24.37 -23.72 21.45 C-23.43 20.57 -23.15 19.69 -22.85 18.78 C-20.6 12.12 -18.25 5.71 -12.38 1.5 C-8.17 0.17 -4.39 0 0 0 Z M-73.12 139.47 C-73.12 141.12 -73.12 142.77 -73.12 144.47 C-72.79 144.47 -72.47 144.47 -72.12 144.47 C-72.12 142.82 -72.12 141.17 -72.12 139.47 C-72.46 139.47 -72.78 139.47 -73.12 139.47 Z " fill="#FDFDFD" transform="translate(769.125,126.53125)"/>
<path d="M0 0 C2.69 1.63 4.4 2.98 6.38 5.44 C6.87 8.69 6.87 8.69 6.88 12.5 C6.89 13.18 6.9 13.85 6.91 14.55 C6.94 16.7 6.94 18.85 6.94 21 C6.94 23.15 6.95 25.31 6.98 27.46 C7 29.41 7 31.36 7.01 33.31 C7.15 36.36 7.15 36.36 8.54 38.35 C11.14 39.89 13.16 39.81 16.18 39.81 C17.89 39.83 17.89 39.83 19.64 39.86 C22.04 39.87 24.44 39.88 26.84 39.88 C28.55 39.9 28.55 39.9 30.3 39.93 C31.87 39.94 31.87 39.94 33.47 39.94 C37.93 40.7 40.27 43.33 43.38 46.44 C43.61 48.9 43.73 51.25 43.75 53.71 C43.76 54.43 43.76 55.15 43.77 55.89 C43.79 57.42 43.8 58.94 43.8 60.47 C43.81 62.8 43.86 65.12 43.91 67.45 C43.92 68.93 43.93 70.42 43.93 71.9 C43.95 72.59 43.97 73.29 43.99 74 C43.96 77.6 43.62 79.17 41.19 81.87 C38.1 83.59 36.29 83.96 32.78 84.01 C31.73 84.04 30.68 84.07 29.6 84.1 C28.51 84.11 27.43 84.12 26.31 84.12 C24.15 84.17 22 84.21 19.84 84.26 C18.89 84.27 17.93 84.28 16.95 84.3 C14.61 84.42 12.62 84.78 10.38 85.44 C9.56 88.3 9.24 90.86 9.23 93.84 C9.22 94.7 9.22 95.56 9.21 96.45 C9.21 97.37 9.21 98.29 9.21 99.24 C9.2 100.2 9.2 101.16 9.2 102.14 C9.19 104.16 9.19 106.19 9.19 108.21 C9.19 111.29 9.17 114.38 9.15 117.46 C9.15 119.43 9.15 121.4 9.14 123.37 C9.13 124.75 9.13 124.75 9.12 126.15 C9.14 130.94 9.33 135 11.38 139.44 C18.15 144.98 24.79 145.68 33.25 145.9 C37.85 146.69 40.17 149.23 43.38 152.44 C43.59 155.2 43.68 157.86 43.68 160.62 C43.68 161.43 43.68 162.24 43.69 163.08 C43.69 164.8 43.7 166.51 43.69 168.23 C43.69 170.86 43.71 173.49 43.74 176.12 C43.74 177.79 43.74 179.45 43.74 181.12 C43.75 181.91 43.76 182.7 43.77 183.51 C43.72 188.9 43.72 188.9 42.1 191.42 C30.45 198.34 3.12 194.33 -9.62 191.44 C-15.55 189.64 -20.67 187.18 -25.62 183.44 C-26.18 183.03 -26.73 182.62 -27.3 182.2 C-38.67 173.24 -43.81 160.44 -45.62 146.44 C-45.9 141.81 -45.93 137.2 -45.93 132.56 C-45.95 130.6 -45.97 128.63 -45.99 126.66 C-46.04 121.87 -46.06 117.07 -46.08 112.27 C-46.09 109.55 -46.11 106.84 -46.14 104.13 C-46.17 101.58 -46.18 99.04 -46.18 96.49 C-46.2 95.35 -46.21 94.2 -46.22 93.02 C-46.23 92.01 -46.23 91 -46.24 89.96 C-46.43 87.41 -46.43 87.41 -47.94 85.61 C-50.72 83.68 -53.56 84.13 -56.88 84.12 C-61.51 83.97 -65.34 83.73 -69.12 80.81 C-71.43 78.32 -71.61 77.6 -71.88 74.06 C-69.18 66.26 -64.18 60.54 -58.5 54.69 C-57.16 53.29 -55.83 51.89 -54.49 50.49 C-53.84 49.8 -53.18 49.12 -52.51 48.42 C-49.84 45.61 -47.23 42.75 -44.62 39.88 C-41.28 36.21 -37.88 32.65 -34.34 29.18 C-32.63 27.44 -31.04 25.64 -29.46 23.79 C-25.49 19.23 -21.32 14.91 -17.06 10.62 C-16.33 9.88 -15.6 9.13 -14.85 8.35 C-5.41 -1.16 -5.41 -1.16 0 0 Z M-44.62 90.44 C-44.62 92.42 -44.62 94.4 -44.62 96.44 C-44.29 96.44 -43.97 96.44 -43.62 96.44 C-43.62 94.46 -43.62 92.48 -43.62 90.44 C-43.96 90.44 -44.28 90.44 -44.62 90.44 Z M-44.62 135.44 C-44.62 139.07 -44.62 142.7 -44.62 146.44 C-44.29 146.44 -43.97 146.44 -43.62 146.44 C-43.62 142.81 -43.62 139.18 -43.62 135.44 C-43.96 135.44 -44.28 135.44 -44.62 135.44 Z " fill="#FDFDFD" transform="translate(1011.625,85.5625)"/>
<path d="M0 0 C2.66 1.6 2.66 1.6 5 4 C5.64 7.13 5.64 7.13 5.67 10.78 C5.7 12.1 5.72 13.41 5.75 14.77 C5.75 16.16 5.75 17.55 5.75 18.94 C5.78 21.66 5.82 24.37 5.86 27.09 C5.87 28.9 5.87 28.9 5.87 30.74 C5.99 33.63 6.33 36.2 7 39 C7.81 39 8.62 39 9.46 39 C13.16 39.01 16.86 39.07 20.56 39.12 C21.84 39.12 23.12 39.12 24.43 39.12 C35.1 39.34 35.1 39.34 39.36 42.05 C43.76 46.73 42.92 53.89 42.75 59.9 C42.69 62.13 42.69 64.34 42.69 66.57 C42.58 77.18 42.58 77.18 40.3 80.42 C37.49 82.35 35.89 82.51 32.5 82.54 C31.45 82.56 30.4 82.59 29.31 82.61 C27.67 82.62 27.67 82.62 26 82.62 C23.83 82.65 21.67 82.68 19.5 82.73 C18.06 82.74 18.06 82.74 16.59 82.74 C13.89 83.01 12.27 83.54 10 85 C3.62 97.76 6.19 126.51 9.54 140.2 C12.42 143.74 16.95 144.72 21.31 145.31 C23.67 145.48 26.01 145.57 28.38 145.62 C36.79 145.89 36.79 145.89 39 147 C39 147.66 39 148.32 39 149 C39.99 149.33 40.98 149.66 42 150 C43.57 153.13 43.21 156.49 43.24 159.93 C43.25 160.72 43.25 161.5 43.26 162.31 C43.28 163.98 43.29 165.65 43.3 167.31 C43.31 169.86 43.36 172.4 43.4 174.95 C43.41 176.57 43.42 178.19 43.43 179.8 C43.44 180.57 43.46 181.33 43.48 182.11 C43.46 185.62 43.29 187.61 41.17 190.47 C38.17 192.58 35.95 192.61 32.31 192.75 C31.66 192.78 31 192.8 30.33 192.83 C28.22 192.91 26.11 192.96 24 193 C23.31 193.02 22.62 193.04 21.91 193.06 C4.16 193.57 -14.55 193.37 -28.65 181.26 C-40.79 169.59 -45.83 156.65 -46.32 139.97 C-46.36 137.36 -46.39 134.75 -46.41 132.14 C-46.43 130.75 -46.45 129.35 -46.47 127.95 C-46.52 124.32 -46.56 120.68 -46.6 117.04 C-46.64 113.31 -46.69 109.59 -46.74 105.86 C-46.84 98.57 -46.92 91.29 -47 84 C-51.62 82.71 -56.29 82.79 -61.07 82.83 C-63.95 82.74 -66.3 82.55 -68.62 80.73 C-71.14 77.88 -71.99 76.35 -72.06 72.5 C-69.99 65.66 -65.27 60.92 -60.44 55.88 C-59.18 54.55 -57.93 53.22 -56.68 51.9 C-55.75 50.92 -55.75 50.92 -54.8 49.91 C-52.19 47.14 -49.63 44.32 -47.06 41.5 C-43.7 37.81 -40.27 34.23 -36.71 30.74 C-35.03 29.03 -33.49 27.27 -31.94 25.45 C-27.42 20.26 -22.56 15.42 -17.69 10.56 C-16.78 9.65 -15.88 8.74 -14.94 7.81 C-14.08 6.94 -13.21 6.08 -12.32 5.19 C-11.54 4.41 -10.76 3.63 -9.95 2.82 C-6.68 -0.23 -4.43 -0.43 0 0 Z M12 41 C12 41.33 12 41.66 12 42 C19.59 42 27.18 42 35 42 C35 41.67 35 41.34 35 41 C27.41 41 19.82 41 12 41 Z M-45 141 C-45 142.98 -45 144.96 -45 147 C-44.67 147 -44.34 147 -44 147 C-44 145.02 -44 143.04 -44 141 C-44.33 141 -44.66 141 -45 141 Z " fill="#FDFDFD" transform="translate(885,86)"/>
<path d="M0 0 C7.34 4.69 12.98 10.34 15.25 18.94 C16.45 27.29 15.19 34.04 10.25 40.94 C5.3 46.42 0.62 49.47 -6.86 50.27 C-16.14 50.39 -22.65 49.08 -29.56 42.69 C-35.62 36.01 -37.51 30.29 -37.2 21.19 C-36.28 14.5 -33.43 9.17 -28.5 4.56 C-20.03 -1.87 -9.99 -5.13 0 0 Z " fill="#FDFDFD" transform="translate(1264.75,229.0625)"/>
<path d="M0 0 C19.14 0 38.28 0 58 0 C58 0.33 58 0.66 58 1 C38.86 1 19.72 1 0 1 C0 0.67 0 0.34 0 0 Z " fill="#FDFDFD" transform="translate(347,83)"/>
<path d="M0 0 C13.53 0 27.06 0 41 0 C41 0.33 41 0.66 41 1 C27.47 1 13.94 1 0 1 C0 0.67 0 0.34 0 0 Z " fill="#FDFDFD" transform="translate(648,127)"/>
<path d="M0 0 C0.33 0 0.66 0 1 0 C1 11.22 1 22.44 1 34 C0.67 34 0.34 34 0 34 C0 22.78 0 11.56 0 0 Z " fill="#FDFDFD" transform="translate(1082,296)"/>
<path d="M0 0 C0.33 0 0.66 0 1 0 C1 9.57 1 19.14 1 29 C0.67 29 0.34 29 0 29 C0 19.43 0 9.86 0 0 Z " fill="#FDFDFD" transform="translate(651,299)"/>
<path d="M0 0 C6.6 0 13.2 0 20 0 C20 0.33 20 0.66 20 1 C13.4 1 6.8 1 0 1 C0 0.67 0 0.34 0 0 Z " fill="#FDFDFD" transform="translate(610,224)"/>
<path d="M0 0 C0.33 0 0.66 0 1 0 C1 1.98 1 3.96 1 6 C0.67 6 0.34 6 0 6 C0 4.02 0 2.04 0 0 Z " fill="#FDFDFD" transform="translate(1227,251)"/>
<path d="M0 0 C2 1 2 1 2 1 Z " fill="#FDFDFD" transform="translate(881,85)"/>
</svg>
