<?xml version="1.0" standalone="no"?>
<!DOCTYPE svg PUBLIC "-//W3C//DTD SVG 20010904//EN"
 "http://www.w3.org/TR/2001/REC-SVG-20010904/DTD/svg10.dtd">
<svg  version="1.0" xmlns="http://www.w3.org/2000/svg"
 width="275.000000pt" height="404.000000pt" viewBox="0 0 275.000000 404.000000"
 preserveAspectRatio="xMidYMid meet">

<g transform="translate(0.000000,404.000000) scale(0.100000,-0.100000)"
fill="#ff0000" stroke="none">
<path d="M1140 3890 c-355 -41 -756 -342 -929 -695 -56 -114 -84 -201 -106
-329 -20 -118 -20 -344 1 -443 64 -309 374 -946 807 -1653 122 -200 436 -684
445 -687 4 -2 50 66 103 150 53 83 145 229 205 322 418 660 739 1270 876 1665
109 314 116 531 26 814 -97 307 -299 547 -610 722 -184 104 -302 134 -553 139
-104 2 -224 0 -265 -5z m200 -740 c98 -11 125 -26 158 -91 19 -36 23 -56 20
-111 -7 -129 -56 -160 -261 -166 -211 -6 -231 10 -232 185 0 87 3 105 21 130
45 62 113 74 294 53z m231 -567 c49 -22 78 -55 110 -128 26 -59 26 -115 0
-186 -46 -123 -117 -151 -386 -153 -188 -1 -226 7 -250 54 -20 40 -29 200 -16
293 11 82 31 123 65 138 12 5 113 8 226 6 182 -3 210 -5 251 -24z"/>
</g>
</svg>
